/vscmnt/brussel_pixiu_data/_data_brussel/112/vsc11236/PredSimResults/SUBJ10mtu3D/weighted-LRposFixed/trackIG/worker_04.mot
version=1
nRows=5
nColumns=50
inDegrees=yes
endheader
                time	         pelvis_tilt	         pelvis_list	     pelvis_rotation	           pelvis_tx	           pelvis_ty	           pelvis_tz	       hip_flexion_r	     hip_adduction_r	      hip_rotation_r	        knee_angle_r	       ankle_angle_r	         mtp_angle_r	       hip_flexion_l	     hip_adduction_l	      hip_rotation_l	        knee_angle_l	       ankle_angle_l	         mtp_angle_l	    lumbar_extension	      lumbar_bending	     lumbar_rotation	 ercspn_r/activation	 intobl_r/activation	 extobl_r/activation	    abd_r/activation	    add_r/activation	hamstrings_r/activation	bifemsh_r/activation	glut_max_r/activation	iliopsoas_r/activation	rect_fem_r/activation	  vasti_r/activation	gastroc_r/activation	 soleus_r/activation	tib_ant_r/activation	 ercspn_l/activation	 intobl_l/activation	 extobl_l/activation	    abd_l/activation	    add_l/activation	hamstrings_l/activation	bifemsh_l/activation	glut_max_l/activation	iliopsoas_l/activation	rect_fem_l/activation	  vasti_l/activation	gastroc_l/activation	 soleus_l/activation	tib_ant_l/activation	
          1.80562075	         -4.83102145	          3.12902836	        -10.64858582	          1.85978938	          0.82963626	          0.01623965	        -11.56920532	         -3.17872892	          6.62197283	         -8.12024324	         10.57681498	         23.79207984	         28.08468195	         -0.80936014	         -8.25280299	         -3.80739177	          6.66057316	          0.24982665	         -6.31587251	         -1.03596031	          3.69951829	          0.03371898	          0.00999999	          0.01000000	          0.04317749	          0.03813079	          0.02563394	          0.12032556	          0.03596257	          0.30931332	          0.01000001	          0.01000000	          0.25734072	          0.24511567	          0.01552722	          0.08529878	          0.16496664	          0.02077922	          0.01200632	          0.13007895	          0.02312477	          0.08162910	          0.01000007	          0.06606288	          0.01454145	          0.01200626	          0.01000000	          0.00999999	          0.26511426	
          1.81765823	         -4.90318221	          2.91904814	        -10.47046855	          1.87475839	          0.82791790	          0.01569903	        -11.66982221	         -2.96281702	          5.92880511	         -9.85272195	         10.15827921	         25.41624183	         28.13274501	         -0.64064376	         -7.22354853	         -5.40018499	          6.38525531	          0.24431978	         -6.08976117	         -1.40536253	          3.87314348	          0.07464070	          0.00999999	          0.01000000	          0.03596252	          0.08505836	          0.02135051	          0.10021915	          0.02995322	          0.32177052	          0.01000003	          0.01000001	          0.21695914	          0.23418523	          0.01293262	          0.07104535	          0.14260932	          0.01730701	          0.01000006	          0.18514109	          0.02518520	          0.07736636	          0.05184301	          0.05502376	          0.01211157	          0.01000002	          0.01862278	          0.01730718	          0.26940571	
          1.82969570	         -4.95934983	          2.71613195	        -10.23001380	          1.89004490	          0.82634812	          0.01510658	        -11.62134077	         -2.74076040	          5.18488888	        -11.92326046	          9.62873832	         27.02536920	         27.99562687	         -0.47673792	         -6.18368811	         -6.87680702	          6.08572017	          0.23861160	         -5.84437923	         -1.80270014	          4.02744498	          0.08995008	          0.00999999	          0.01000000	          0.02995318	          0.07840493	          0.01778301	          0.08347252	          0.02494803	          0.31158043	          0.01000002	          0.01000001	          0.18070524	          0.21909395	          0.01077158	          0.06976999	          0.11877932	          0.01441501	          0.04938379	          0.16377404	          0.04006233	          0.07959895	          0.06076262	          0.04582929	          0.01008773	          0.00999999	          0.01551091	          0.01441515	          0.30067594	
          1.84173317	         -5.00115726	          2.51761437	         -9.92828980	          1.90544799	          0.82508220	          0.01441230	        -11.36115348	         -2.51530605	          4.39491180	        -14.39719737	          8.93292212	         28.56407063	         27.71397669	         -0.29145741	         -5.22062722	         -8.11487565	          5.71483749	          0.22754228	         -5.59986073	         -2.21455713	          4.15943457	          0.11311680	          0.00999999	          0.01000000	          0.02494800	          0.08494720	          0.01858190	          0.06952425	          0.02077921	          0.29822438	          0.01000001	          0.01000001	          0.15050937	          0.19047776	          0.00999999	          0.07772712	          0.09893128	          0.01200626	          0.08921024	          0.16800095	          0.04026196	          0.06629796	          0.07772123	          0.03817121	          0.01000000	          0.01000000	          0.01291904	          0.01200638	          0.31749109	
          1.85377064	         -5.02885757	          2.32801659	         -9.57038347	          1.92077968	          0.82424292	          0.01362411	        -10.85003633	         -2.29572592	          3.54854670	        -17.30098790	          8.05118917	         29.88971045	         27.36956232	         -0.08266008	         -4.35928872	         -9.25801823	          5.37472682	          0.21878504	         -5.37151909	         -2.64416732	          4.26628026	          0.13157668	          0.00999999	          0.01000000	          0.02077919	          0.09713177	          0.02207520	          0.05790675	          0.01730700	          0.27485979	          0.01000000	          0.01000000	          0.12535923	          0.15864890	          0.00999999	          0.07040928	          0.08239985	          0.01000002	          0.11039670	          0.16558226	          0.04196906	          0.05521958	          0.07759076	          0.03179279	          0.01000000	          0.03605183	          0.01076027	          0.01000012	          0.33568689	
